HIERARCHY
ROOT Hips
{
	OFFSET 0.00000 0.00000 0.00000
	CHANNELS 6 Xposition Yposition Zposition Zrotation Yrotation Xrotation 
	JOINT LHipJoint
	{
		OFFSET 0 0 0
		CHANNELS 3 Zrotation Yrotation Xrotation
		JOINT LeftUpLeg
		{
			OFFSET 1.37590 -1.78394 0.89329
			CHANNELS 3 Zrotation Yrotation Xrotation
			JOINT LeftLeg
			{
				OFFSET 2.47928 -6.81178 0.00000
				CHANNELS 3 Zrotation Yrotation Xrotation
				JOINT LeftFoot
				{
					OFFSET 2.63345 -7.23535 0.00000
					CHANNELS 3 Zrotation Yrotation Xrotation
					JOINT LeftToeBase
					{
						OFFSET 0.23938 -0.65768 2.27012
						CHANNELS 3 Zrotation Yrotation Xrotation
						End Site
						{
							OFFSET 0.00000 -0.00000 1.18363
						}
					}
				}
			}
		}
	}
	JOINT RHipJoint
	{
		OFFSET 0 0 0
		CHANNELS 3 Zrotation Yrotation Xrotation
		JOINT RightUpLeg
		{
			OFFSET -1.33617 -1.78394 0.89329
			CHANNELS 3 Zrotation Yrotation Xrotation
			JOINT RightLeg
			{
				OFFSET -2.56922 -7.05888 0.00000
				CHANNELS 3 Zrotation Yrotation Xrotation
				JOINT RightFoot
				{
					OFFSET -2.56568 -7.04915 0.00000
					CHANNELS 3 Zrotation Yrotation Xrotation
					JOINT RightToeBase
					{
						OFFSET -0.27533 -0.75646 2.18105
						CHANNELS 3 Zrotation Yrotation Xrotation
						End Site
						{
							OFFSET -0.00000 -0.00000 1.15233
						}
					}
				}
			}
		}
	}
	JOINT LowerBack
	{
		OFFSET 0 0 0
		CHANNELS 3 Zrotation Yrotation Xrotation
		JOINT Spine
		{
			OFFSET 0.06190 2.15152 -0.00935
			CHANNELS 3 Zrotation Yrotation Xrotation
			JOINT Spine1
			{
				OFFSET 0.06334 2.15332 0.00872
				CHANNELS 3 Zrotation Yrotation Xrotation
				JOINT Neck
				{
					OFFSET 0 0 0
					CHANNELS 3 Zrotation Yrotation Xrotation
					JOINT Neck1
					{
						OFFSET -0.04202 1.66908 0.23524
						CHANNELS 3 Zrotation Yrotation Xrotation
						JOINT Head
						{
							OFFSET 0.07510 1.69357 -0.24440
							CHANNELS 3 Zrotation Yrotation Xrotation
							End Site
							{
								OFFSET 0.02556 1.71719 -0.11000
							}
						}
					}
				}
				JOINT LeftShoulder
				{
					OFFSET 0 0 0
					CHANNELS 3 Zrotation Yrotation Xrotation
					JOINT LeftArm
					{
						OFFSET 3.67168 1.26306 -0.41342
						CHANNELS 3 Zrotation Yrotation Xrotation
						JOINT LeftForeArm
						{
							OFFSET 4.68510 -0.00000 -0.00000
							CHANNELS 3 Zrotation Yrotation Xrotation
							JOINT LeftHand
							{
								OFFSET 3.39626 -0.00000 -0.00000
								CHANNELS 3 Zrotation Yrotation Xrotation
								JOINT LeftFingerBase
								{
									OFFSET 0 0 0
									CHANNELS 3 Zrotation Yrotation Xrotation
									JOINT LeftHandIndex1
									{
										OFFSET 0.48608 -0.00000 -0.00000
										CHANNELS 3 Zrotation Yrotation Xrotation
										End Site
										{
											OFFSET 0.39189 -0.00000 -0.00000
										}
									}
								}
								JOINT LThumb
								{
									OFFSET 0 0 0
									CHANNELS 3 Zrotation Yrotation Xrotation
									End Site
									{
										OFFSET 0.39787 -0.00000 0.39787
									}
								}
							}
						}
					}
				}
				JOINT RightShoulder
				{
					OFFSET 0 0 0
					CHANNELS 3 Zrotation Yrotation Xrotation
					JOINT RightArm
					{
						OFFSET -3.04136 1.42992 -0.76390
						CHANNELS 3 Zrotation Yrotation Xrotation
						JOINT RightForeArm
						{
							OFFSET -5.55576 -0.00000 -0.00000
							CHANNELS 3 Zrotation Yrotation Xrotation
							JOINT RightHand
							{
								OFFSET -3.32774 -0.00000 -0.00000
								CHANNELS 3 Zrotation Yrotation Xrotation
								JOINT RightFingerBase
								{
									OFFSET 0 0 0
									CHANNELS 3 Zrotation Yrotation Xrotation
									JOINT RightHandIndex1
									{
										OFFSET -0.50763 -0.00000 -0.00000
										CHANNELS 3 Zrotation Yrotation Xrotation
										End Site
										{
											OFFSET -0.40926 -0.00000 -0.00000
										}
									}
								}
								JOINT RThumb
								{
									OFFSET 0 0 0
									CHANNELS 3 Zrotation Yrotation Xrotation
									End Site
									{
										OFFSET -0.41551 -0.00000 0.41551
									}
								}
							}
						}
					}
				}
			}
		}
	}
}
MOTION
Frames: 14
Frame Time: .0083333
45.532 17.8025 4.9508 0 0 0 0 0 0 -21 0 0 0 0 0 0 0 0 0 0 0 0 0 0 21 0 0 0 0 0 0 0 0 0 0 0 0 0 0 0 0 0 0 0 0 0 0 -16 0 0 21 0 0 11 0 0 0 -8 0 0 0 0 0 0 0 0 0 0 0 0 0 0 0 0 0 0 0 0 8 0 0 0 0 0 0 0 0 0 0 0 0 0 0 0 0 0
45.5320 17.8025 4.9508 -56.8504 -81.3701 62.6565 0.0000 0.0000 0.0000 -10.7953 -8.1010 -6.6952 0.6230 5.0511 14.0544 0.3398 0.5391 -11.2195 0.9448 -6.1908 -17.3390 0.0000 0.0000 0.0000 29.1598 2.6104 -10.3552 -0.9519 -6.2132 17.4042 -0.1301 -10.2494 -16.4962 -0.7132 -5.3970 15.0443 2.7050 0.5295 -1.3133 3.8621 0.6408 -1.6999 2.4525 0.2813 -1.0219 -4.5656 -2.0806 -20.5283 2.8476 -2.1487 18.3226 1.4335 -1.0200 9.2312 0.0000 0.0000 0.0000 -93.6743 2.1245 -20.5293 8.2489 -13.9556 -1.0113 -0.0000 -0.0000 53.6514 15.2938 23.6455 6.2589 -7.1250 0.0000 -0.0000 -14.5902 53.7992 -3.2092 0.0000 0.0000 0.0000 85.6723 -2.5223 2.0234 -11.6476 19.2741 -1.9844 0.0000 0.0000 18.6651 -14.8118 -24.4716 6.2512 7.1250 -0.0000 -0.0000 15.4781 -54.5166 -3.6855
45.5264 17.7997 4.9469 -57.0593 -81.3742 63.2560 0.0000 0.0000 0.0000 -10.6785 -8.2287 -7.1319 0.6312 5.0835 14.1468 0.3596 0.6012 -11.5603 0.9190 -6.1078 -17.0974 0.0000 0.0000 0.0000 29.1969 2.8590 -10.8444 -0.9789 -6.2982 17.6522 -0.1391 -10.2397 -16.6057 -0.7182 -5.4155 15.0976 2.6785 0.4990 -1.7107 3.8814 0.5795 -1.7591 2.4900 0.2506 -0.8588 -4.6929 -2.0394 -20.7084 3.0872 -2.1044 18.5423 1.5442 -0.9812 9.3421 0.0000 -0.0000 0.0000 -93.6888 1.8859 -18.8990 8.3114 -14.0564 -1.0264 -0.0000 -0.0000 52.2303 15.0461 23.2534 6.0579 -7.1250 0.0000 -0.0000 -14.6515 53.3693 -3.0676 0.0000 -0.0000 0.0000 85.7131 -2.3660 2.4722 -11.8075 19.5154 -2.0375 0.0000 0.0000 19.0006 -14.7272 -24.5402 6.2304 7.1250 -0.0000 -0.0000 15.5978 -54.5672 -3.7346
45.5111 17.7923 4.9396 -57.1683 -81.4351 63.6686 0.0000 0.0000 0.0000 -10.6464 -8.2745 -7.4136 0.6338 5.0938 14.1763 0.3878 0.5503 -11.9761 0.8978 -6.0388 -16.8970 0.0000 0.0000 0.0000 29.1835 3.0252 -11.1968 -1.0007 -6.3658 17.8495 -0.1555 -10.2673 -16.8566 -0.6576 -5.1868 14.4422 2.6239 0.5222 -1.9977 3.8475 0.5995 -1.8587 2.4880 0.2608 -0.8009 -4.7383 -2.0526 -20.6289 3.2076 -2.1433 18.5985 1.5885 -0.9904 9.3511 0.0000 0.0000 0.0000 -93.6915 1.6150 -18.0743 8.3201 -14.0705 -1.0286 -0.0000 -0.0000 51.9231 15.1267 23.5119 6.1551 -7.1250 0.0000 -0.0000 -14.6931 53.6374 -3.1740 0.0000 0.0000 0.0000 85.7861 -2.3099 3.1224 -12.0081 19.8168 -2.1050 0.0000 0.0000 18.3221 -14.7908 -24.8413 6.3297 7.1250 -0.0000 -0.0000 15.6892 -54.8723 -3.8750
45.4936 17.7869 4.9312 -56.9981 -81.4561 63.7532 0.0000 0.0000 0.0000 -10.6104 -8.3374 -7.6202 0.6333 5.0916 14.1700 0.4130 0.4158 -12.2983 0.8236 -5.7903 -16.1771 0.0000 0.0000 0.0000 29.1822 3.1470 -11.4390 -1.0111 -6.3978 17.9431 -0.1705 -10.2877 -17.0763 -0.6631 -5.2078 14.5021 2.5630 0.5289 -2.2841 3.8202 0.5962 -1.9168 2.4962 0.2597 -0.7002 -4.6672 -2.0520 -20.5325 3.2362 -2.1766 18.5832 1.5823 -0.9986 9.3295 0.0000 -0.0000 0.0000 -93.6998 1.1906 -17.8016 8.2734 -13.9951 -1.0172 -0.0000 -0.0000 52.1625 15.0534 23.0476 6.0106 -7.1250 0.0000 -0.0000 -14.5489 53.1686 -2.9733 0.0000 -0.0000 0.0000 85.8552 -2.2032 3.7461 -12.2048 20.1111 -2.1722 0.0000 0.0000 17.9703 -14.6264 -25.1033 6.3179 7.1250 -0.0000 -0.0000 15.9926 -55.0949 -4.0404
45.4745 17.7815 4.9221 -57.0792 -81.5269 64.0655 0.0000 0.0000 0.0000 -10.6071 -8.3590 -7.7795 0.6318 5.0861 14.1542 0.4154 0.5943 -12.4051 0.8402 -5.8470 -16.3410 0.0000 0.0000 0.0000 29.1576 3.2436 -11.6696 -1.0251 -6.4406 18.0684 -0.1891 -10.2673 -17.2906 -0.6656 -5.2176 14.5301 2.4615 0.5689 -2.5282 3.7827 0.6416 -1.9855 2.5172 0.2833 -0.6358 -6.5939 -1.8428 -21.7893 6.5798 -2.0857 20.3321 3.1230 -0.7082 10.2310 -0.0000 -0.0000 0.0000 -93.6869 0.8831 -16.8271 8.2855 -14.0146 -1.0202 -0.0000 -0.0000 51.7445 14.9891 23.5177 6.0983 -7.1250 0.0000 -0.0000 -14.8326 53.6179 -3.1980 -0.0000 -0.0000 0.0000 85.9339 -2.1333 4.1576 -12.3188 20.2810 -2.2116 0.0000 0.0000 17.8738 -14.8729 -24.1142 6.1925 7.1250 -0.0000 -0.0000 15.2377 -54.1796 -3.4998
45.4425 17.7826 4.9041 -55.9957 -81.4981 63.0300 0.0000 0.0000 0.0000 -10.6101 -8.4473 -7.6401 0.6256 5.0613 14.0836 0.4300 0.6001 -12.6187 0.8318 -5.8185 -16.2586 0.0000 0.0000 0.0000 29.2029 3.4111 -11.5016 -1.0245 -6.4389 18.0633 -0.2031 -10.4487 -17.6826 -0.6888 -5.3060 14.7835 2.2433 0.5082 -2.7262 3.7912 0.5556 -1.9806 2.6485 0.2432 -0.5198 -6.3305 -1.6755 -21.6361 6.5739 -1.9532 20.3655 3.0963 -0.6308 10.2019 0.0000 -0.0000 0.0000 -93.7296 0.4599 -16.4223 8.2370 -13.9364 -1.0084 -0.0000 -0.0000 51.9159 14.9887 22.7877 5.9204 -7.1250 0.0000 -0.0000 -14.4939 52.9018 -2.8660 0.0000 -0.0000 0.0000 85.9594 -2.1280 4.8957 -12.5533 20.6292 -2.2935 0.0000 0.0000 17.3100 -14.7270 -24.7368 6.2767 7.1250 -0.0000 -0.0000 15.6990 -54.7585 -3.8336
45.4325 17.7728 4.9035 -57.0368 -81.6154 64.4350 0.0000 0.0000 0.0000 -10.5855 -8.4797 -7.9177 0.6174 5.0286 13.9902 0.4403 0.7092 -12.8108 0.7994 -5.7066 -15.9354 0.0000 0.0000 0.0000 29.1473 3.4674 -12.0058 -1.0448 -6.5005 18.2436 -0.2213 -10.2239 -17.6424 -0.6385 -5.1122 14.2289 2.3210 0.5947 -2.9747 3.7380 0.6607 -2.1147 2.5543 0.2937 -0.5201 -6.5627 -1.8454 -21.5684 6.6759 -2.1378 20.2743 3.1422 -0.7224 10.1745 0.0000 0.0000 0.0000 -93.7636 0.1038 -15.7847 8.2453 -13.9496 -1.0104 -0.0000 -0.0000 51.8112 14.9294 22.9622 5.9385 -7.1250 0.0000 -0.0000 -14.6321 53.0626 -2.9525 0.0000 0.0000 0.0000 86.0199 -2.0747 5.5673 -12.7436 20.9103 -2.3610 0.0000 0.0000 17.0637 -15.0259 -24.3679 6.3200 7.1250 -0.0000 -0.0000 15.2111 -54.4560 -3.5970
45.4121 17.7658 4.8944 -56.7266 -81.6788 64.4206 0.0000 0.0000 0.0000 -10.6037 -8.6212 -8.2881 0.6402 5.1188 14.2476 0.4676 0.6785 -13.1803 0.7457 -5.5159 -15.3862 0.0000 0.0000 0.0000 29.0851 3.5796 -12.2971 -1.0565 -6.5355 18.3462 -0.2363 -10.1972 -17.7952 -0.6094 -4.9964 13.8984 2.2338 0.5974 -3.2800 3.7022 0.6541 -2.1959 2.5690 0.2908 -0.4331 -6.3969 -1.8351 -21.3809 6.4953 -2.1370 20.1257 3.0456 -0.7327 10.0828 -0.0000 0.0000 0.0000 -93.8286 -0.2467 -14.9744 8.2823 -14.0095 -1.0194 -0.0000 -0.0000 51.5403 14.8893 23.1308 5.9627 -7.1250 0.0000 -0.0000 -14.7495 53.2207 -3.0347 -0.0000 0.0000 0.0000 86.0627 -2.0392 6.4308 -13.0666 21.3847 -2.4775 0.0000 0.0000 16.3933 -14.8950 -24.6918 6.3402 7.1250 -0.0000 -0.0000 15.5072 -54.7469 -3.7806
45.3903 17.7593 4.8845 -57.0738 -81.7049 65.0349 0.0000 0.0000 0.0000 -10.4976 -8.6057 -8.4353 0.6274 5.0684 14.1037 0.4682 0.7504 -13.2186 0.7737 -5.6164 -15.6753 0.0000 0.0000 0.0000 29.1306 3.7044 -12.5621 -1.0695 -6.5743 18.4603 -0.2535 -10.1987 -18.0055 -0.5915 -4.9240 13.6920 2.2487 0.6079 -3.5529 3.6753 0.6561 -2.2772 2.5355 0.2908 -0.3636 -6.1474 -1.6112 -21.3481 6.4696 -1.9219 20.4186 3.0319 -0.6207 10.1627 0.0000 0.0000 0.0000 -93.8473 -0.5856 -14.1411 8.3017 -14.0407 -1.0241 -0.0000 -0.0000 51.2094 14.9870 23.5058 6.0945 -7.1250 0.0000 -0.0000 -14.8289 53.6059 -3.1928 0.0000 0.0000 0.0000 86.1140 -1.9742 7.3385 -13.4094 21.8842 -2.6039 0.0000 0.0000 15.7192 -14.5387 -25.9352 6.4710 7.1250 -0.0000 -0.0000 16.5359 -55.8823 -4.5029
45.3659 17.7471 4.8770 -57.3068 -81.7713 65.6871 0.0000 0.0000 0.0000 -10.4521 -8.7172 -8.8036 0.6325 5.0885 14.1610 0.4821 0.8511 -13.4519 0.7504 -5.5331 -15.4357 0.0000 0.0000 0.0000 29.1010 3.8836 -12.9797 -1.0842 -6.6178 18.5880 -0.2776 -10.1281 -18.2137 -0.5849 -4.8967 13.6142 2.2252 0.6321 -4.0142 3.6458 0.6687 -2.3902 2.5233 0.2960 -0.2223 -6.1405 -1.5916 -21.2757 6.4953 -1.9100 20.4385 3.0417 -0.6133 10.1558 0.0000 0.0000 0.0000 -93.9128 -0.8965 -13.1822 8.3821 -14.1704 -1.0437 -0.0000 -0.0000 50.6560 14.7535 23.1274 5.9054 -7.1250 0.0000 -0.0000 -14.8819 53.1929 -3.0527 0.0000 0.0000 0.0000 86.1388 -1.9170 8.2220 -13.6892 22.2887 -2.7091 0.0000 0.0000 15.0965 -15.0284 -25.9485 6.7002 7.1250 -0.0000 -0.0000 16.0451 -55.9936 -4.4079
45.3426 17.7455 4.8633 -56.6996 -81.7407 65.2044 0.0000 0.0000 0.0000 -10.3867 -8.7326 -8.8743 0.6334 5.0921 14.1716 0.4998 0.7078 -13.6299 0.6959 -5.3326 -14.8597 0.0000 0.0000 0.0000 29.1508 3.9055 -12.9993 -1.0802 -6.6060 18.5531 -0.2917 -10.1857 -18.4433 -0.6075 -4.9888 13.8766 2.1357 0.6061 -4.1373 3.6560 0.6320 -2.4320 2.5839 0.2782 -0.1966 -6.1500 -1.6190 -21.1708 6.5087 -1.9511 20.3643 3.0399 -0.6329 10.1132 -0.0000 -0.0000 0.0000 -94.0061 -1.2916 -12.4856 8.4071 -14.2107 -1.0498 -0.0000 -0.0000 50.4298 14.7536 22.8141 5.8303 -7.1250 0.0000 -0.0000 -14.7374 52.8861 -2.9101 -0.0000 -0.0000 0.0000 86.1395 -1.9105 8.8062 -13.8365 22.5004 -2.7652 0.0000 0.0000 15.4336 -15.4629 -24.5533 6.5574 7.1250 -0.0000 -0.0000 14.8652 -54.7206 -3.6091
45.3214 17.7462 4.8495 -56.5399 -81.7518 65.0856 0.0000 0.0000 0.0000 -10.3592 -8.6575 -8.9440 0.6459 5.1413 14.3120 0.5191 0.5448 -13.8184 0.6604 -5.1975 -14.4727 0.0000 0.0000 0.0000 29.2074 3.8501 -12.9659 -1.0784 -6.6007 18.5377 -0.3027 -10.2233 -18.6125 -0.5843 -4.8943 13.6073 2.0660 0.5932 -4.1060 3.6541 0.6202 -2.4751 2.6201 0.2728 -0.2587 -6.3219 -1.6305 -21.1469 6.6683 -1.9571 20.4277 3.1264 -0.6314 10.1353 0.0000 0.0000 0.0000 -94.0983 -1.6032 -11.5156 8.4932 -14.3491 -1.0710 -0.0000 -0.0000 49.8535 14.7719 23.4871 5.9992 -7.1250 0.0000 -0.0000 -15.0333 53.5483 -3.2170 0.0000 0.0000 0.0000 86.1333 -1.8746 9.6730 -14.1056 22.8854 -2.8690 0.0000 0.0000 15.1726 -15.6602 -24.0575 6.5195 7.1250 -0.0000 -0.0000 14.4220 -54.2720 -3.3390
45.2873 17.7458 4.8416 -57.2390 -81.8552 65.7727 0.0000 0.0000 0.0000 -10.4094 -8.6521 -8.6982 0.6364 5.1041 14.2057 0.5190 0.7397 -13.8968 0.6506 -5.1595 -14.3640 0.0000 0.0000 0.0000 29.2064 3.8002 -12.8372 -1.0813 -6.6095 18.5634 -0.3312 -10.0765 -18.7785 -0.5539 -4.7674 13.2463 2.0479 0.6310 -4.2109 3.6209 0.6662 -2.4376 2.5990 0.2964 -0.1628 -6.4045 -1.7024 -21.1049 6.7197 -2.0408 20.3404 3.1443 -0.6705 10.1041 0.0000 0.0000 0.0000 -94.1766 -1.9858 -10.5020 8.5755 -14.4814 -1.0915 -0.0000 -0.0000 49.2190 14.6156 22.8966 5.7933 -7.1250 0.0000 -0.0000 -14.9111 52.9422 -2.9664 0.0000 0.0000 0.0000 86.1532 -1.8488 10.5950 -14.4400 23.3603 -3.0004 0.0000 0.0000 15.0394 -15.8423 -23.6880 6.5039 7.1250 -0.0000 -0.0000 14.0629 -53.9426 -3.1392
